<svg xmlns="http://www.w3.org/2000/svg" width="48" height="48" viewBox="0 0 48 48">
  <path d="M46.305,16.819H41.836a1.694,1.694,0,0,0-1.677,1.5,4.912,4.912,0,0,1-2.368-1.162l-3.244-3.246a6.742,6.742,0,0,0-3.468-1.859V7.857a1.7,1.7,0,0,0,1.638-1.691V1.7A1.7,1.7,0,0,0,31.02,0H7.747a1.7,1.7,0,0,0-1.7,1.7V6.166A1.7,1.7,0,0,0,7.686,7.857v10.6H6.127a3.468,3.468,0,0,0-2.822,5.487,3.47,3.47,0,0,0-1.959,6.209,3.475,3.475,0,0,0-.329.291A3.467,3.467,0,0,0,2.663,36.27a3.439,3.439,0,0,0-.715,2.109A3.477,3.477,0,0,0,5.419,41.85H7.737a3.465,3.465,0,0,0,3.418,2.961h0a3.453,3.453,0,0,0,2.019-.646,3.467,3.467,0,0,0,6.206,1.957,3.334,3.334,0,0,0,.29.328A3.469,3.469,0,0,0,25.5,44.8a3.436,3.436,0,0,0,2.111.717,3.476,3.476,0,0,0,3.47-3.471v-.2h9.065a1.7,1.7,0,0,0,1.69,1.637h4.469a1.7,1.7,0,0,0,1.7-1.7V18.52A1.7,1.7,0,0,0,46.305,16.819ZM4.7,20.5a2,2,0,0,1,1.426-.592H7.686V23.94H6.077a2.018,2.018,0,0,1-1.965-2.016A2,2,0,0,1,4.7,20.5ZM2.048,25.985a2,2,0,0,1,1.424-.592h0l2.588,0H7.686v4.029l-4.213,0a2.015,2.015,0,0,1-1.425-3.441ZM1.456,32.9A2.011,2.011,0,0,1,3.47,30.881h0l4.214,0v4.027H5.419a.3.3,0,0,0-.043,0h-1.9A2.018,2.018,0,0,1,1.456,32.9ZM3.4,38.378a2.018,2.018,0,0,1,1.982-2.016h2.3V40.4H5.421A2.021,2.021,0,0,1,3.4,38.378ZM8.414,6.407H7.747a.242.242,0,0,1-.242-.242V1.7a.243.243,0,0,1,.242-.242H31.02a.243.243,0,0,1,.242.242V6.165a.242.242,0,0,1-.242.242H8.414Zm19.2,37.656A2.013,2.013,0,0,1,25.6,42.047l0-12.494a.728.728,0,0,0-1.455,0V43.992a2.015,2.015,0,1,1-4.03,0h0V29.553a.728.728,0,0,0-1.455,0V43.994a2.015,2.015,0,1,1-4.029,0l0-14.439a.728.728,0,1,0-1.455,0V41.342h0a2.016,2.016,0,0,1-2.013,2.014h0A2.02,2.02,0,0,1,9.14,41.34V7.861H29.624v4.057H22.4a4.23,4.23,0,0,0-4.214,3.346,4.161,4.161,0,0,0,4.082,4.977h4.2a7.475,7.475,0,0,1,3.15.6v21.2A2.014,2.014,0,0,1,27.61,44.063ZM40.139,21.735V40.4H31.08V21.811a6.784,6.784,0,0,1,1.118,1.3.724.724,0,0,0,.608.326.74.74,0,0,0,.4-.119.73.73,0,0,0,.206-1.008,7.676,7.676,0,0,0-6.937-3.518l-4.2,0h0a2.706,2.706,0,0,1-2.655-3.246,2.811,2.811,0,0,1,2.786-2.166h7.333a5.319,5.319,0,0,1,3.782,1.566l3.232,3.232A6.621,6.621,0,0,0,40.14,19.8v1.931Zm6.408,20.053a.243.243,0,0,1-.242.244H41.836a.243.243,0,0,1-.242-.244V18.516a.242.242,0,0,1,.242-.242h4.469a.242.242,0,0,1,.242.242Z" fill="#1a171b"/>
  <circle cx="44.07" cy="39.554" r="0.728" fill="#1a171b"/>
  <circle cx="28.786" cy="3.93" r="0.727" fill="#1a171b"/>
</svg>
